HIERARCHY
ROOT Hips
{
  OFFSET -2.9740628571428576 95.22824285714285 -3.405862857142857
  CHANNELS 6 Xposition Zposition Yposition Zrotation Xrotation Yrotation
  JOINT LeftUpLeg
  {
    OFFSET 8.64259 1.9539799999999998 -2.3883499999999995
    CHANNELS 3 Zrotation Xrotation Yrotation
    JOINT LeftLeg
    {
      OFFSET 43.770199999999996 0.0 0.0
      CHANNELS 3 Zrotation Xrotation Yrotation
      JOINT LeftFoot
      {
        OFFSET 40.62380000000001 0.0 0.0
        CHANNELS 3 Zrotation Xrotation Yrotation
        JOINT LeftToeBase
        {
          OFFSET 12.724199999999998 0.0 0.0
          CHANNELS 3 Zrotation Xrotation Yrotation
          End Site
          {
            OFFSET 0.0 0.0 0.0
          }
        }
      }
    }
  }
  JOINT RightUpLeg
  {
    OFFSET -8.2249 1.9539799999999998 -2.59336
    CHANNELS 3 Zrotation Xrotation Yrotation
    JOINT RightLeg
    {
      OFFSET 43.56529999999999 0.0 0.0
      CHANNELS 3 Zrotation Xrotation Yrotation
      JOINT RightFoot
      {
        OFFSET 40.62380000000001 0.0 0.0
        CHANNELS 3 Zrotation Xrotation Yrotation
        JOINT RightToeBase
        {
          OFFSET 12.724199999999998 0.0 0.0
          CHANNELS 3 Zrotation Xrotation Yrotation
          End Site
          {
            OFFSET 0.0 0.0 0.0
          }
        }
      }
    }
  }
  JOINT Spine
  {
    OFFSET 0.16583 0.8771399999999999 6.61349
    CHANNELS 3 Zrotation Xrotation Yrotation
    JOINT Spine1
    {
      OFFSET 7.389628571428571 2e-05 0.0
      CHANNELS 3 Zrotation Xrotation Yrotation
      JOINT Spine2
      {
        OFFSET 11.944500000000001 1e-05 0.0
        CHANNELS 3 Zrotation Xrotation Yrotation
        JOINT Spine3
        {
          OFFSET 14.725400000000004 4e-05 0.0
          CHANNELS 3 Zrotation Xrotation Yrotation
          JOINT Spine4
          {
            OFFSET 10.9679 0.0 0.0
            CHANNELS 3 Zrotation Xrotation Yrotation
            JOINT RightShoulder
            {
              OFFSET 2.46616 -1.6653 3.69651
              CHANNELS 3 Zrotation Xrotation Yrotation
              JOINT RightArm
              {
                OFFSET 13.001199999999999 0.0 0.0
                CHANNELS 3 Zrotation Xrotation Yrotation
                JOINT RightForeArm
                {
                  OFFSET 28.784799999999997 2e-05 0.0
                  CHANNELS 3 Zrotation Xrotation Yrotation
                  JOINT RightHand
                  {
                    OFFSET 26.568800000000003 2e-05 0.0
                    CHANNELS 3 Zrotation Xrotation Yrotation
                    JOINT RightHandMiddle1
                    {
                      OFFSET 8.03675 -0.8865800000000001 0.7278700000000001
                      CHANNELS 3 Zrotation Xrotation Yrotation
                      JOINT RightHandMiddle2
                      {
                        OFFSET 2.7883299999999993 0.0 0.0
                        CHANNELS 3 Zrotation Xrotation Yrotation
                        JOINT RightHandMiddle3
                        {
                          OFFSET 2.4115500000000005 0.0 0.0
                          CHANNELS 3 Zrotation Xrotation Yrotation
                          End Site
                          {
                            OFFSET 0.0 0.0 0.0
                          }
                        }
                      }
                    }
                    JOINT RightHandRing1
                    {
                      OFFSET 7.979660000000002 -0.8867700000000002 -1.00486
                      CHANNELS 3 Zrotation Xrotation Yrotation
                      JOINT RightHandRing2
                      {
                        OFFSET 2.8636799999999996 0.0 0.0
                        CHANNELS 3 Zrotation Xrotation Yrotation
                        JOINT RightHandRing3
                        {
                          OFFSET 2.11079 0.0 0.0
                          CHANNELS 3 Zrotation Xrotation Yrotation
                          End Site
                          {
                            OFFSET 0.0 0.0 0.0
                          }
                        }
                      }
                    }
                    JOINT RightHandPinky1
                    {
                      OFFSET 8.03707 -0.8875299999999999 -2.6069600000000004
                      CHANNELS 3 Zrotation Xrotation Yrotation
                      JOINT RightHandPinky2
                      {
                        OFFSET 1.8462757142857142 0.0 0.0
                        CHANNELS 3 Zrotation Xrotation Yrotation
                        JOINT RightHandPinky3
                        {
                          OFFSET 1.8843400000000001 0.0 0.0
                          CHANNELS 3 Zrotation Xrotation Yrotation
                          End Site
                          {
                            OFFSET 0.0 0.0 0.0
                          }
                        }
                      }
                    }
                    JOINT RightHandIndex1
                    {
                      OFFSET 7.92262 -0.8855000000000002 2.31175
                      CHANNELS 3 Zrotation Xrotation Yrotation
                      JOINT RightHandIndex2
                      {
                        OFFSET 2.63761 0.0 0.0
                        CHANNELS 3 Zrotation Xrotation Yrotation
                        JOINT RightHandIndex3
                        {
                          OFFSET 2.16656 0.0 0.0
                          CHANNELS 3 Zrotation Xrotation Yrotation
                          End Site
                          {
                            OFFSET 0.0 0.0 0.0
                          }
                        }
                      }
                    }
                    JOINT RightHandThumb1
                    {
                      OFFSET 3.4769 0.059800000000000006 2.8878899999999996
                      CHANNELS 3 Zrotation Xrotation Yrotation
                      JOINT RightHandThumb2
                      {
                        OFFSET 2.7768599999999997 0.00010000000000000002 -2e-05
                        CHANNELS 3 Zrotation Xrotation Yrotation
                        JOINT RightHandThumb3
                        {
                          OFFSET 2.420578571428571 -9e-05 0.0
                          CHANNELS 3 Zrotation Xrotation Yrotation
                          End Site
                          {
                            OFFSET 0.0 0.0 0.0
                          }
                        }
                      }
                    }
                  }
                }
              }
            }
            JOINT LeftShoulder
            {
              OFFSET 2.3803400000000003 -1.29275 -3.7523014285714282
              CHANNELS 3 Zrotation Xrotation Yrotation
              JOINT LeftArm
              {
                OFFSET 16.3182 5.9999999999999995e-05 0.0
                CHANNELS 3 Zrotation Xrotation Yrotation
                JOINT LeftForeArm
                {
                  OFFSET 27.090100000000003 0.0 0.0
                  CHANNELS 3 Zrotation Xrotation Yrotation
                  JOINT LeftHand
                  {
                    OFFSET 24.545099999999998 2e-05 0.0
                    CHANNELS 3 Zrotation Xrotation Yrotation
                    JOINT LeftHandMiddle1
                    {
                      OFFSET 9.218019999999997 0.66582 0.5455300000000002
                      CHANNELS 3 Zrotation Xrotation Yrotation
                      JOINT LeftHandMiddle2
                      {
                        OFFSET 2.66255 0.0 0.0
                        CHANNELS 3 Zrotation Xrotation Yrotation
                        JOINT LeftHandMiddle3
                        {
                          OFFSET 2.2804 0.0 0.0
                          CHANNELS 3 Zrotation Xrotation Yrotation
                          End Site
                          {
                            OFFSET 0.0 0.0 0.0
                          }
                        }
                      }
                    }
                    JOINT LeftHandRing1
                    {
                      OFFSET 9.247749999999998 0.66519 -1.1266999999999998
                      CHANNELS 3 Zrotation Xrotation Yrotation
                      JOINT LeftHandRing2
                      {
                        OFFSET 2.4704099999999998 0.0 -2e-05
                        CHANNELS 3 Zrotation Xrotation Yrotation
                        JOINT LeftHandRing3
                        {
                          OFFSET 2.2054000000000005 0.0 0.0
                          CHANNELS 3 Zrotation Xrotation Yrotation
                          End Site
                          {
                            OFFSET 0.0 0.0 0.0
                          }
                        }
                      }
                    }
                    JOINT LeftHandPinky1
                    {
                      OFFSET 9.35383857142857 0.66301 -2.7233200000000006
                      CHANNELS 3 Zrotation Xrotation Yrotation
                      JOINT LeftHandPinky2
                      {
                        OFFSET 1.63407 0.0 0.0
                        CHANNELS 3 Zrotation Xrotation Yrotation
                        JOINT LeftHandPinky3
                        {
                          OFFSET 1.71176 0.0 0.0
                          CHANNELS 3 Zrotation Xrotation Yrotation
                          End Site
                          {
                            OFFSET 0.0 0.0 0.0
                          }
                        }
                      }
                    }
                    JOINT LeftHandIndex1
                    {
                      OFFSET 8.731608571428572 0.6758999999999998 2.0680099999999997
                      CHANNELS 3 Zrotation Xrotation Yrotation
                      JOINT LeftHandIndex2
                      {
                        OFFSET 2.6668899999999995 0.0 0.0
                        CHANNELS 3 Zrotation Xrotation Yrotation
                        JOINT LeftHandIndex3
                        {
                          OFFSET 2.12946 0.0 2e-05
                          CHANNELS 3 Zrotation Xrotation Yrotation
                          End Site
                          {
                            OFFSET 0.0 0.0 0.0
                          }
                        }
                      }
                    }
                    JOINT LeftHandThumb1
                    {
                      OFFSET 4.967354285714285 -0.62265 3.3958599999999994
                      CHANNELS 3 Zrotation Xrotation Yrotation
                      JOINT LeftHandThumb2
                      {
                        OFFSET 2.15386 2e-05 0.0
                        CHANNELS 3 Zrotation Xrotation Yrotation
                        JOINT LeftHandThumb3
                        {
                          OFFSET 2.1951099999999997 -2.9999999999999997e-05 2e-05
                          CHANNELS 3 Zrotation Xrotation Yrotation
                          End Site
                          {
                            OFFSET 0.0 0.0 0.0
                          }
                        }
                      }
                    }
                  }
                }
              }
            }
            JOINT Neck
            {
              OFFSET 5.0226 -0.026629999999999994 0.0
              CHANNELS 3 Zrotation Xrotation Yrotation
              JOINT Head
              {
                OFFSET 6.693637142857143 2.9999999999999997e-05 0.0
                CHANNELS 3 Zrotation Xrotation Yrotation
                End Site
                {
                  OFFSET 0.0 0.0 0.0
                }
              }
            }
          }
        }
      }
    }
  }
}
MOTION
Frames: 4
Frame Time: 0.03333333
0.0 4.440892098500626e-16 93.1047 85.8984 -89.9971 85.8895 -176.91400000000002 2.0400799999999997 95.525 -7.285230000000002 3.0659799999999997 0.18677199999999994 62.5657 1.7005500000000002 0.8666729999999998 28.7808 5.4911199999999995e-06 6.13372e-06 176.74 2.1260399999999997 84.075 -7.384360000000001 -3.3174200000000003 -0.18966600000000006 62.5963 -1.4549299999999996 -0.7424580000000001 28.7808 1.4458800000000001e-05 2.04273e-05 -0.0001740550000000063 6.33748 -89.9982 14.199000000000002 1.8008700000016198e-05 6.015620000021649e-06 2.5280299999999998 -8.312800000020992e-06 -7.477729999982863e-06 -20.0071 0.004787430000000037 1.39673999999812e-05 0.005531910000000195 0.00479331999999999 -6.8685899999865185e-06 101.243 -18.5355 -84.448 -6.869710000000001 30.1274 -17.1508 -6.364459999999999 -31.83 -8.301230000000004 1.6631900000000006 0.08753630000000001 0.6764619999999999 -89.4043 88.9709 89.0941 -0.060485000000000004 -1.085449999999988e-08 -4.00499e-08 -0.063925 -1.039e-05 4.8398e-07 -89.3944 88.98100000000001 89.0841 -1.1574200000000001 3.1358899999999996e-06 -1.7059599999999998e-06 2.576 -6.84164e-06 8.084700000000001e-07 -88.8572 89.3579 88.54700000000001 -1.14578 -9.75147e-06 3.3959800000000047e-06 1.1457700000000002 1.02966e-05 -9.602e-07 -89.4221 88.9487 89.1119 0.409289 1.053e-05 0.000781072 -0.636599 -3.6816900000000004e-06 -8.19759e-07 104.36399999999999 40.5023 -88.8246 -7.66903 0.186167 -1.3504399999999999 -11.2634 -2.7909e-06 6.6213e-05 -78.9752 -21.5882 94.3405 17.1137 -33.0203 -15.6571 5.4629900000000005 33.4666 -8.325249999999997 -1.9588599999999996 -0.07190509999999994 0.8321050000000003 -91.1875 -87.8289 -89.999 3.4088800000000004 5.18264e-06 0.00326548 -0.9548629999999999 -6.2287e-06 -8.481030000000002e-07 -91.1878 -89.4015 -89.9993 2.85637 8.071400000000002e-06 0.00285479 -3.1684400000000004 3.3279000000000004e-06 4.8172599999999996e-08 88.8068 -89.71700000000001 89.9954 2.54481 -1.1733699999999999e-05 0.00303908 -2.54482 6.839169999999999e-06 1.3100499999999998e-06 -91.1882 -86.1973 -89.9997 6.1310400000000005 -1.00184e-05 0.00685524 -2.04543 -5.9452499999999995e-06 -1.14782e-06 -101.949 -40.7242 -90.0694 10.0172 2.6152899999999998e-05 5.55262e-06 -2.6697599999999997 -6.51639e-06 -3.9528699999999995e-06 1.7546400000000002 2.391820000058331e-06 -9.58567999997939e-06 -7.41221 -0.0002940430000000216 0.00021933600000000053
-0.04355999999999938 0.020700000000000163 92.9828 86.0036 -89.9473 85.8796 -176.805 1.5063299999999948 95.4335 -6.177340000000001 3.0930599999999995 0.186697 62.3287 1.60425 0.78605 28.7808 5.4911199999999995e-06 6.13372e-06 177.179 5.805039999999998 83.5709 -15.043500000000002 -5.708269999999999 -0.34563800000000017 65.104 -0.3431519999999999 -0.15715499999999993 28.7808 1.4458800000000001e-05 2.04273e-05 -0.009173280000000006 6.3364199999999995 -89.884 14.199000000000002 0.00013802800000001225 0.0001702199999999987 2.5280299999999998 0.0001260049999999846 0.00014827399999994828 -20.0071 0.004787430000000037 0.00021138700000000732 0.005531889999999873 0.00479331999999999 0.00018530300000002553 101.289 -18.5563 -84.374 -7.102979999999999 29.6467 -18.3311 -4.648719999999999 -31.063300000000005 -5.119700000000002 0.9315059999999998 0.030096700000000087 -0.844989 -89.4043 88.9709 89.0941 -0.060485000000000004 -1.085449999999988e-08 -4.00499e-08 -0.063925 -1.039e-05 4.8398e-07 -89.3944 88.98100000000001 89.0841 -1.1574200000000001 3.1358899999999996e-06 -1.7059599999999998e-06 2.576 -6.84164e-06 8.084700000000001e-07 -88.8572 89.3579 88.54700000000001 -1.14578 -9.75147e-06 3.3959800000000047e-06 1.1457700000000002 1.02966e-05 -9.602e-07 -89.4221 88.9487 89.1119 0.409289 1.053e-05 0.000781072 -0.636599 -3.6816900000000004e-06 -8.19759e-07 104.36399999999999 40.5023 -88.8246 -7.66903 0.186167 -1.3504399999999999 -11.2634 -2.7909e-06 6.6213e-05 -78.9115 -21.6068 94.4578 17.2629 -32.4507 -17.3967 3.2158999999999995 33.0323 -4.2836 -0.9180410000000001 -0.044334899999999955 -0.7432289999999977 -91.1875 -87.8289 -89.999 3.4088800000000004 5.18264e-06 0.00326548 -0.9548629999999999 -6.2287e-06 -8.481030000000002e-07 -91.1878 -89.4015 -89.9993 2.85637 8.071400000000002e-06 0.00285479 -3.1684400000000004 3.3279000000000004e-06 4.8172599999999996e-08 88.8068 -89.71700000000001 89.9954 2.54481 -1.1733699999999999e-05 0.00303908 -2.54482 6.839169999999999e-06 1.3100499999999998e-06 -91.1882 -86.1973 -89.9997 6.1310400000000005 -1.00184e-05 0.00685524 -2.04543 -5.9452499999999995e-06 -1.14782e-06 -101.949 -40.7242 -90.0694 10.0172 2.6152899999999998e-05 5.55262e-06 -2.6697599999999997 -6.51639e-06 -3.9528699999999995e-06 1.8849599999999995 -0.014509499999999953 -0.04680739999999961 -7.58961 -0.03852790000000006 0.11548299999999997
-0.05375999999999692 0.049980000000001024 93.0793 84.9027 -89.8432 84.9535 -176.72099999999998 0.5054360000000031 95.5915 -4.064730000000001 3.02231 0.17458800000000008 61.9452 1.52031 0.769796 28.7808 5.4911199999999995e-06 6.13372e-06 176.609 1.1543600000000005 84.1824 -5.463760000000001 -3.016210000000001 -0.171962 61.9244 -1.4636400000000003 -0.735484 28.7808 1.4458800000000001e-05 2.04273e-05 0.007949640000000008 6.33726 -90.0525 14.199000000000002 0.011137900000000034 0.02042299999999997 2.5280299999999998 0.011998100000000012 0.019919200000000026 -20.0071 0.00471752999999997 0.022874600000000023 0.005530020000000135 0.0047234099999999835 0.022862499999999952 101.359 -18.7654 -84.1519 -7.2682600000000015 29.740299999999998 -18.3403 -4.6538699999999995 -31.147699999999997 -5.122250000000001 1.22967 0.04008769999999995 -0.9066540000000001 -89.4043 88.9709 89.0941 -0.060485000000000004 -1.085449999999988e-08 -4.00499e-08 -0.063925 -1.039e-05 4.8398e-07 -89.3944 88.98100000000001 89.0841 -1.1574200000000001 3.1358899999999996e-06 -1.7059599999999998e-06 2.576 -6.84164e-06 8.084700000000001e-07 -88.8572 89.3579 88.54700000000001 -1.14578 -9.75147e-06 3.3959800000000047e-06 1.1457700000000002 1.02966e-05 -9.602e-07 -89.4221 88.9487 89.1119 0.409289 1.053e-05 0.000781072 -0.636599 -3.6816900000000004e-06 -8.19759e-07 104.36399999999999 40.5023 -88.8246 -7.66903 0.186167 -1.3504399999999999 -11.2634 -2.7909e-06 6.6213e-05 -78.9322 -21.4973 94.4258 17.3017 -32.4966 -17.4497 3.2242700000000006 33.2213 -4.292200000000001 -1.0208 -0.04841009999999968 -0.8001699999999996 -91.1875 -87.8289 -89.999 3.4088800000000004 5.18264e-06 0.00326548 -0.9548629999999999 -6.2287e-06 -8.481030000000002e-07 -91.1878 -89.4015 -89.9993 2.85637 8.071400000000002e-06 0.00285479 -3.1684400000000004 3.3279000000000004e-06 4.8172599999999996e-08 88.8068 -89.71700000000001 89.9954 2.54481 -1.1733699999999999e-05 0.00303908 -2.54482 6.839169999999999e-06 1.3100499999999998e-06 -91.1882 -86.1973 -89.9997 6.1310400000000005 -1.00184e-05 0.00685524 -2.04543 -5.9452499999999995e-06 -1.14782e-06 -101.949 -40.7242 -90.0694 10.0172 2.6152899999999998e-05 5.55262e-06 -2.6697599999999997 -6.51639e-06 -3.9528699999999995e-06 2.01556 -0.0960802999999999 -0.4232959999999997 -7.737660000000001 -0.05626020000000009 0.502871
-0.06875999999999749 0.06483000000000017 92.9001 83.6892 -89.741 83.81200000000001 -176.738 0.39550200000000046 95.6674 -3.8200199999999995 2.7828100000000004 0.15973199999999987 62.9881 1.3922100000000002 0.71421 28.7808 5.4911199999999995e-06 6.13372e-06 177.00699999999998 4.001519999999999 84.1972 -11.452199999999998 -3.2212499999999995 -0.19325200000000003 64.4577 -1.41281 -0.7278410000000006 28.7808 1.4458800000000001e-05 2.04273e-05 0.010293400000000008 6.335369999999999 -90.1504 14.199000000000002 0.0016602299999999848 0.029271399999999947 2.5280299999999998 0.0029426100000000677 0.029186099999999993 -20.0071 -0.007239389999999957 0.028276999999999997 0.005535479999999815 -0.007238390000000039 0.028253700000000048 101.399 -18.8343 -84.0547 -7.452609999999996 29.804299999999998 -18.2475 -4.67568 -31.3614 -5.133499999999998 1.1486 0.03996000000000022 -0.9743680000000001 -89.4043 88.9709 89.0941 -0.060485000000000004 -1.085449999999988e-08 -4.00499e-08 -0.063925 -1.039e-05 4.8398e-07 -89.3944 88.98100000000001 89.0841 -1.1574200000000001 3.1358899999999996e-06 -1.7059599999999998e-06 2.576 -6.84164e-06 8.084700000000001e-07 -88.8572 89.3579 88.54700000000001 -1.14578 -9.75147e-06 3.3959800000000047e-06 1.1457700000000002 1.02966e-05 -9.602e-07 -89.4221 88.9487 89.1119 0.409289 1.053e-05 0.000781072 -0.636599 -3.6816900000000004e-06 -8.19759e-07 104.36399999999999 40.5023 -88.8246 -7.66903 0.186167 -1.3504399999999999 -11.2634 -2.7909e-06 6.6213e-05 -78.9179 -21.4585 94.4505 17.3635 -32.513000000000005 -17.4144 3.2318499999999997 33.388200000000005 -4.30012 -1.0017 -0.04840460000000024 -0.7695039999999995 -91.1875 -87.8289 -89.999 3.4088800000000004 5.18264e-06 0.00326548 -0.9548629999999999 -6.2287e-06 -8.481030000000002e-07 -91.1878 -89.4015 -89.9993 2.85637 8.071400000000002e-06 0.00285479 -3.1684400000000004 3.3279000000000004e-06 4.8172599999999996e-08 88.8068 -89.71700000000001 89.9954 2.54481 -1.1733699999999999e-05 0.00303908 -2.54482 6.839169999999999e-06 1.3100499999999998e-06 -91.1882 -86.1973 -89.9997 6.1310400000000005 -1.00184e-05 0.00685524 -2.04543 -5.9452499999999995e-06 -1.14782e-06 -101.949 -40.7242 -90.0694 10.0172 2.6152899999999998e-05 5.55262e-06 -2.6697599999999997 -6.51639e-06 -3.9528699999999995e-06 2.1427300000000002 -0.08884589999999992 -0.532438 -7.806539999999999 -0.030567299999999964 0.6337149999999999
